{"title":"Bajrangi Bhaijaan (2015) pDVDRip x264 AAC S3AR3 [DUS]","uid":12136848,"size":857709260,"categoryP":"video","categoryS":"movies","magnet":"?xt=urn:btih:7ffc9eb7a0cc967cda210036803a7ba3f01956e8&amp;dn=Bajrangi+Bhaijaan+%282015%29+pDVDRip+x264+AAC+S3AR3+%5BDUS%5D&amp;tr=udp%3A%2F%2Ftracker.openbittorrent.com%3A80&amp;tr=udp%3A%2F%2Fopen.demonii.com%3A1337&amp;tr=udp%3A%2F%2Ftracker.coppersurfer.tk%3A6969&amp;tr=udp%3A%2F%2Fexodus.desync.com%3A6969","seeders":3,"leechers":0,"uploader":"SS132203","files":2,"time":1437218715,"description":"Bajrangi Bhaijaan (2015) pDVDRip x264 AAC S3AR3 [DUS]\n &lt;a href=&quot;\nhttp://imgsparrow.co/image/VI&quot; rel=&quot;nofollow&quot; target=&quot;_NEW&quot;&gt;\nhttp://imgsparrow.co/image/VI&lt;/a&gt;\n &lt;a href=&quot;\nhttp://imgsparrow.co/image/ii&quot; rel=&quot;nofollow&quot; target=&quot;_NEW&quot;&gt;\nhttp://imgsparrow.co/image/ii&lt;/a&gt;\n &lt;a href=&quot;\nhttp://imgsparrow.co/image/9b&quot; rel=&quot;nofollow&quot; target=&quot;_NEW&quot;&gt;\nhttp://imgsparrow.co/image/9b&lt;/a&gt;\n\nInfo : - \n\nChal beta selfie le le re Aa le le, aye le, aye le Aa le le, le le re\n\nThank Team DUS Not ME\n\nGeneral\nComplete name               : Bajrangi Bhaijaan (2015) pDVDRip x264 AAC S3AR3 [DUS].mp4\nFormat                      : MPEG-4\nFormat profile              : Base Media\nCodec ID                    : isom\nFile size                   : 818 MiB\nDuration                    : 2h 34mn\nOverall bit rate            : 741 Kbps\n\nVideo\nID                          : 1\nFormat                      : AVC\nFormat/Info                 : Advanced Video Codec\nFormat profile              : &lt;a class=&quot;__cf_email__&quot; href=&quot;/cdn-cgi/l/email-protection&quot; data-cfemail=&quot;4008292728000c726e71&quot;&gt;[email&amp;#160;protected]&lt;/a&gt;&lt;script data-cfhash='f9e31' type=&quot;text/javascript&quot;&gt;\n/* &lt;![CDATA[ */!function(){try{var t=&quot;currentScript&quot;in document?document.currentScript:function(){for(var t=document.getElementsByTagName(&quot;script&quot;),e=t.length;e--;)if(t[e].getAttribute(&quot;data-cfhash&quot;))return t[e]}();if(t&amp;&amp;t.previousSibling){var e,r,n,i,c=t.previousSibling,a=c.getAttribute(&quot;data-cfemail&quot;);if(a){for(e=&quot;&quot;,r=parseInt(a.substr(0,2),16),n=2;a.length-n;n+=2)i=parseInt(a.substr(n,2),16)^r,e+=String.fromCharCode(i);e=document.createTextNode(e),c.parentNode.replaceChild(e,c)}t.parentNode.removeChild(t);}}catch(u){}}()/* ]]&gt; */&lt;/script&gt;\nFormat settings, CABAC      : Yes\nFormat settings, ReFrames   : 4 frames\nCodec ID                    : avc1\nCodec ID/Info               : Advanced Video Coding\nDuration                    : 2h 34mn\nBit rate                    : 546 Kbps\nMaximum bit rate            : 2 330 Kbps\nWidth                       : 640 pixels\nHeight                      : 276 pixels\nDisplay aspect ratio        : 2.35:1\nFrame rate mode             : Constant\nFrame rate                  : 25.000 fps\nColor space                 : YUV\nChroma subsampling          : 4:2:0\nBit depth                   : 8 bits\nScan type                   : Progressive\nBits/(Pixel*Frame)          : 0.124\nStream size                 : 603 MiB (74%)\nWriting library             : x264 core\nEncoded date                : UTC 2015-07-17 21:41:40\nTagged date                 : UTC 2015-07-17 21:48:26\n\nAudio\nID                          : 2\nFormat                      : MPEG Audio\nFormat version              : Version 1\nFormat profile              : Layer 3\nMode                        : Joint stereo\nCodec ID                    : 6B\nDuration                    : 2h 34mn\nBit rate mode               : Constant\nBit rate                    : 192 Kbps\nMaximum bit rate            : 198 Kbps\nChannel(s)                  : 2 channels\nSampling rate               : 48.0 KHz\nCompression mode            : Lossy\nStream size                 : 212 MiB (26%)\nWriting library             : LAME3.99r\n\nScreens : - \n &lt;a href=&quot;\nhttp://imgsparrow.co/image/VP&quot; rel=&quot;nofollow&quot; target=&quot;_NEW&quot;&gt;\nhttp://imgsparrow.co/image/VP&lt;/a&gt; &lt;a href=&quot;\nhttp://imgsparrow.co/image/VW&quot; rel=&quot;nofollow&quot; target=&quot;_NEW&quot;&gt;\nhttp://imgsparrow.co/image/VW&lt;/a&gt; &lt;a href=&quot;\nhttp://imgsparrow.co/image/VX&quot; rel=&quot;nofollow&quot; target=&quot;_NEW&quot;&gt;\nhttp://imgsparrow.co/image/VX&lt;/a&gt; &lt;a href=&quot;\nhttp://imgsparrow.co/image/VY&quot; rel=&quot;nofollow&quot; target=&quot;_NEW&quot;&gt;\nhttp://imgsparrow.co/image/VY&lt;/a&gt; &lt;a href=&quot;\nhttp://imgsparrow.co/image/Vc&quot; rel=&quot;nofollow&quot; target=&quot;_NEW&quot;&gt;\nhttp://imgsparrow.co/image/Vc&lt;/a&gt; &lt;a href=&quot;\nhttp://imgsparrow.co/image/Vd&quot; rel=&quot;nofollow&quot; target=&quot;_NEW&quot;&gt;\nhttp://imgsparrow.co/image/Vd&lt;/a&gt; &lt;a href=&quot;\nhttp://imgsparrow.co/image/Vo&quot; rel=&quot;nofollow&quot; target=&quot;_NEW&quot;&gt;\nhttp://imgsparrow.co/image/Vo&lt;/a&gt; &lt;a href=&quot;\nhttp://imgsparrow.co/image/VM&quot; rel=&quot;nofollow&quot; target=&quot;_NEW&quot;&gt;\nhttp://imgsparrow.co/image/VM&lt;/a&gt;\n &lt;a href=&quot;\nhttp://imgsparrow.co/image/N2&quot; rel=&quot;nofollow&quot; target=&quot;_NEW&quot;&gt;\nhttp://imgsparrow.co/image/N2&lt;/a&gt;\n &lt;a href=&quot;\nhttp://imgsparrow.co/image/Vm&quot; rel=&quot;nofollow&quot; target=&quot;_NEW&quot;&gt;\nhttp://imgsparrow.co/image/Vm&lt;/a&gt;","torrent":{"xt":"urn:btih:7ffc9eb7a0cc967cda210036803a7ba3f01956e8","amp;dn":"Bajrangi+Bhaijaan+%282015%29+pDVDRip+x264+AAC+S3AR3+%5BDUS%5D","amp;tr":["udp%3A%2F%2Ftracker.openbittorrent.com%3A80","udp%3A%2F%2Fopen.demonii.com%3A1337","udp%3A%2F%2Ftracker.coppersurfer.tk%3A6969","udp%3A%2F%2Fexodus.desync.com%3A6969"],"infoHash":"7ffc9eb7a0cc967cda210036803a7ba3f01956e8","infoHashBuffer":{"type":"Buffer","data":[127,252,158,183,160,204,150,124,218,33,0,54,128,58,123,163,240,25,86,232]},"announce":[],"urlList":[]}}